<?xml version="1.0" encoding="utf-8"?>
<!-- Generator: Adobe Illustrator 26.2.1, SVG Export Plug-In . SVG Version: 6.00 Build 0)  -->
<svg version="1.1" id="Capa_1" xmlns="http://www.w3.org/2000/svg" xmlns:xlink="http://www.w3.org/1999/xlink" x="0px" y="0px"
	 viewBox="0 0 136.65 54.75" style="enable-background:new 0 0 136.65 54.75;" xml:space="preserve">
<style type="text/css">
	.st0{fill:none;}
	.st1{fill:#11333F;}
</style>
<rect x="-680.18" y="-293.9" class="st0" width="20.27" height="91.23"/>
<g>
	<g>
		<g>
			<path class="st1" d="M63.97,29.34l3.11-0.65c0.06-0.01,0.1-0.06,0.1-0.12l0-0.56c0-0.08-0.07-0.14-0.15-0.12l-3.11,0.65
				c-0.06,0.01-0.1,0.06-0.1,0.12l0,0.56C63.82,29.29,63.89,29.35,63.97,29.34z"/>
			<path class="st1" d="M70.28,18.69V15.9c0.01-0.29-0.06-0.44-0.29-0.44c-0.72-0.01-2,0.03-2.04,0.03h-4.88
				c-0.04,0-1.31-0.03-2.03-0.03c-0.16,0-0.3,0.19-0.3,0.42v2.81c0,0.02-0.01-0.02,0,0l0,0l3.05,4.94l0,0l0,0l0,2.61
				c0.02,0.24,0.23,0.26,0.23,0.26l3.06-0.54c0.04-0.01,0.16-0.06,0.16-0.31l-0.02-2.02"/>
			<path class="st1" d="M63.97,27.89l3.11-0.65c0.06-0.01,0.1-0.06,0.1-0.12l0-0.56c0-0.08-0.07-0.14-0.15-0.12l-3.11,0.65
				c-0.06,0.01-0.1,0.06-0.1,0.12l0,0.56C63.82,27.85,63.9,27.91,63.97,27.89z"/>
			<path class="st1" d="M63.96,30.78l3.1-0.65c0.06-0.01,0.1-0.06,0.1-0.12l0-0.56c0-0.08-0.07-0.14-0.15-0.12l-3.11,0.65
				c-0.06,0.01-0.1,0.06-0.1,0.12l0,0.56C63.81,30.74,63.88,30.8,63.96,30.78z"/>
		</g>
		<g>
			<path class="st1" d="M23.22,30.19V16.32h9.55v2.85h-6.26v2.7h5.01v2.81h-5.01v5.5H23.22z"/>
			<path class="st1" d="M42.47,30.19h-5.33c-1.82,0-2.73-0.91-2.73-2.74v-8.39c0-1.82,0.91-2.74,2.73-2.74h5.33
				c0.93,0,1.62,0.23,2.06,0.68c0.45,0.45,0.67,1.14,0.67,2.06v8.39C45.21,29.28,44.3,30.19,42.47,30.19z M37.71,19.55v7.41
				c0,0.25,0.13,0.38,0.38,0.38h3.46c0.15,0,0.25-0.03,0.3-0.08c0.05-0.05,0.08-0.15,0.08-0.3v-7.41c0-0.14-0.03-0.24-0.08-0.29
				c-0.05-0.05-0.15-0.08-0.3-0.08h-3.46c-0.15,0-0.25,0.03-0.3,0.08C37.73,19.31,37.71,19.41,37.71,19.55z"/>
			<path class="st1" d="M58.68,30.19h-3.42l-2.32-5.71h-1.92v5.71h-3.29V16.32h7.73c1.82,0,2.74,0.91,2.74,2.74v2.53
				c0,1.53-0.63,2.42-1.91,2.66L58.68,30.19z M51.01,21.76h3.51c0.14,0,0.24-0.03,0.3-0.08c0.05-0.05,0.08-0.15,0.08-0.29V19.5
				c0-0.14-0.03-0.24-0.08-0.3c-0.05-0.05-0.15-0.08-0.3-0.08h-3.51V21.76z"/>
			<path class="st1" d="M87.15,16.32v13.87h-3.21v-8.41l-2.79,4.72h-2.18l-2.79-4.72v8.41h-3.13V16.32h3.67l3.4,5.78l3.39-5.78
				H87.15z"/>
			<path class="st1" d="M89.91,16.32h9.55v2.85H93.2v2.51h5.01v2.81H93.2v2.83h6.26v2.85h-9.55V16.32z"/>
			<path class="st1" d="M104.18,30.19c-1.82,0-2.73-0.91-2.73-2.74v-8.39c0-1.82,0.92-2.74,2.75-2.74h6.08c0.39,0,0.7,0.31,0.7,0.7
				v2.15h-5.86c-0.15,0-0.25,0.03-0.3,0.08c-0.05,0.05-0.08,0.15-0.08,0.29v7.41c0,0.21,0.17,0.38,0.38,0.38h5.86v1.91
				c0,0.52-0.42,0.94-0.94,0.94H104.18z"/>
		</g>
		<path class="st1" d="M108.45,19.96c0-0.15,0-1.06,0-1.06l2.53,0.15v0.89c0,0.11-0.06,0.22-0.15,0.28l-1.94,1.23
			c-0.18,0.12-0.43-0.01-0.43-0.23V19.96z"/>
	</g>
	<path class="st1" d="M108.57,25.84l1.97-1.4c0.18-0.13,0.44,0,0.44,0.23v2.62c0,0.15-0.11,0.3-0.26,0.3h-2.27c0,0,0-0.73,0-0.88
		v-0.63C108.45,25.98,108.49,25.9,108.57,25.84z"/>
</g>
</svg>
